<svg xmlns="http://www.w3.org/2000/svg" viewBox="0 0 64 64" role="img" aria-label="ClauZ3">
  <title>ClauZ3</title>
  <rect width="64" height="64" rx="12" fill="#4f46e5"/>
  <g fill="none" stroke="#ffffff" stroke-width="2.5" stroke-linecap="round" stroke-linejoin="round" opacity="0.55">
    <path d="M 16,16 c -3,0 -4,1.5 -4,4 l 0,6 c 0,2.5 -1.2,3 -2.4,3 c 1.2,0 2.4,0.5 2.4,3 l 0,6 c 0,2.5 1,4 4,4"/>
    <path d="M 48,16 c 3,0 4,1.5 4,4 l 0,6 c 0,2.5 1.2,3 2.4,3 c -1.2,0 -2.4,0.5 -2.4,3 l 0,6 c 0,2.5 -1,4 -4,4"/>
  </g>
  <text x="32" y="42" text-anchor="middle"
        font-family="Inter, -apple-system, BlinkMacSystemFont, 'Segoe UI', Roboto, 'Helvetica Neue', Arial, sans-serif"
        font-weight="700" font-size="26" fill="#ffffff" letter-spacing="-1">Z3</text>
</svg>
