<svg xmlns="http://www.w3.org/2000/svg" viewBox="0 0 320 100" role="img" aria-label="ClauZ3">
  <title>ClauZ3</title>
  <g fill="none" stroke="#4f46e5" stroke-width="4" stroke-linecap="round" stroke-linejoin="round">
    <path d="M 38,18 c -10,0 -14,5 -14,14 l 0,14 c 0,7 -4,8 -8,8 c 4,0 8,1 8,8 l 0,14 c 0,9 4,14 14,14"/>
    <path d="M 282,18 c 10,0 14,5 14,14 l 0,14 c 0,7 4,8 8,8 c -4,0 -8,1 -8,8 l 0,14 c 0,9 -4,14 -14,14"/>
  </g>
  <text x="160" y="65" text-anchor="middle"
        font-family="Inter, -apple-system, BlinkMacSystemFont, 'Segoe UI', Roboto, 'Helvetica Neue', Arial, sans-serif"
        font-weight="600" font-size="44" letter-spacing="-1.5">
    <tspan fill="#1e1b4b">Clau</tspan><tspan fill="#4f46e5">Z3</tspan>
  </text>
</svg>
